<?xml version="1.0" standalone="no"?>
<!DOCTYPE svg PUBLIC "-//W3C//DTD SVG 20010904//EN"
 "http://www.w3.org/TR/2001/REC-SVG-20010904/DTD/svg10.dtd">
<svg version="1.0" xmlns="http://www.w3.org/2000/svg"
 width="370.000000pt" height="370.000000pt" viewBox="0 0 370.000000 370.000000"
 preserveAspectRatio="xMidYMid meet">
<metadata>
Created by potrace 1.11, written by Peter Selinger 2001-2013
</metadata>
<g transform="translate(0.000000,370.000000) scale(0.100000,-0.100000)"
fill="#000000" stroke="none">
<path d="M3230 3447 c-69 -33 -136 -105 -145 -155 -6 -37 -2 -51 30 -110 59
-107 63 -110 190 -142 128 -32 143 -33 154 -11 16 28 13 88 -5 156 -9 33 -20
97 -24 143 -6 78 -9 85 -41 112 -42 36 -94 39 -159 7z"/>
<path d="M3629 3226 c-77 -62 -111 -114 -117 -180 -4 -49 -2 -54 19 -59 13 -4
54 -7 92 -7 l67 0 0 145 c0 80 -1 145 -2 145 -2 0 -28 -20 -59 -44z"/>
<path d="M3134 2971 c-19 -11 -41 -17 -57 -14 -19 4 -27 1 -27 -8 0 -8 -11
-35 -25 -61 -13 -25 -28 -72 -31 -104 -5 -41 -15 -65 -34 -88 -25 -28 -26 -36
-20 -86 7 -59 11 -71 59 -171 17 -36 31 -81 31 -100 l0 -34 -22 35 c-13 19
-33 43 -45 53 -13 10 -35 40 -50 65 -15 26 -37 61 -48 78 -63 93 -244 204
-333 204 -54 0 -135 -24 -153 -46 -6 -8 -12 -47 -13 -87 -1 -66 2 -77 34 -131
26 -43 51 -68 100 -100 36 -24 79 -48 95 -54 43 -17 165 -31 268 -32 55 0 86
-4 82 -10 -8 -13 -195 -10 -280 5 -38 7 -91 21 -118 31 -45 17 -51 18 -110 2
-43 -11 -75 -14 -105 -8 -23 4 -42 3 -42 -1 0 -5 9 -9 21 -9 34 0 120 -32 126
-46 18 -49 -36 -95 -113 -97 -24 0 -44 -3 -44 -6 0 -3 18 -21 40 -39 85 -70
188 -69 266 3 40 37 158 105 219 127 28 10 80 18 120 18 52 0 66 3 55 11 -11
7 -4 9 25 4 40 -6 40 -6 62 42 13 26 50 76 83 110 71 74 97 122 99 183 4 123
4 121 46 141 58 29 114 87 141 147 13 29 24 59 24 66 0 19 -46 26 -179 26 -96
0 -121 -3 -147 -19z"/>
<path d="M3500 2932 c0 -27 38 -229 54 -290 22 -82 53 -118 114 -137 l22 -6 0
163 0 164 -42 40 c-77 73 -148 105 -148 66z"/>
<path d="M1628 2528 c-9 -7 -28 -39 -42 -70 l-25 -58 42 0 c23 -1 60 -7 82
-15 55 -20 55 -20 55 21 0 27 -10 47 -42 85 -48 54 -47 54 -70 37z"/>
<path d="M2082 2398 c3 -7 12 -14 21 -16 12 -2 15 1 11 12 -7 19 -38 22 -32 4z"/>
<path d="M2140 2375 c-7 -8 -11 -17 -8 -20 8 -8 49 8 45 18 -6 18 -23 19 -37
2z"/>
<path d="M2055 2360 c-7 -12 18 -24 37 -18 8 3 5 9 -9 16 -14 8 -24 9 -28 2z"/>
<path d="M2138 2333 c6 -2 18 -2 25 0 6 3 1 5 -13 5 -14 0 -19 -2 -12 -5z"/>
<path d="M1385 2258 c-34 -19 -53 -21 -131 -19 -89 2 -92 2 -113 -25 -36 -46
-45 -98 -25 -157 9 -29 20 -56 25 -61 5 -6 9 -30 9 -55 0 -26 3 -56 6 -68 7
-26 11 -26 179 9 55 11 116 21 135 23 19 1 55 6 79 10 30 5 41 4 37 -4 -4 -5
-23 -13 -44 -17 -83 -14 -178 -45 -216 -70 -37 -25 -42 -26 -90 -15 -28 6 -53
8 -58 3 -5 -5 0 -32 12 -62 12 -30 20 -67 19 -84 -4 -62 1 -85 27 -115 14 -17
34 -31 44 -31 11 0 26 -13 36 -29 26 -43 67 -63 137 -64 62 -2 62 -2 82 -42
29 -58 61 -73 122 -57 86 22 100 64 58 166 -27 67 -22 86 26 86 15 0 30 4 33
9 3 4 -15 48 -40 96 -43 84 -84 180 -84 198 0 4 9 3 20 -3 18 -10 20 -8 20 24
0 30 -4 35 -29 41 -17 3 -42 23 -62 48 -28 35 -33 48 -30 82 10 103 5 164 -13
184 -27 30 -117 29 -171 -1z m245 -322 c0 -2 -7 -7 -16 -10 -8 -3 -12 -2 -9 4
6 10 25 14 25 6z m-21 -58 c-43 -43 -114 -180 -124 -237 -6 -39 -9 -42 -22
-28 -14 13 -13 20 2 64 10 26 36 74 57 107 21 32 38 62 38 66 0 11 71 72 77
66 3 -2 -10 -20 -28 -38z"/>
<path d="M820 2253 c-89 -62 -140 -141 -140 -218 0 -43 5 -51 58 -107 31 -33
68 -65 82 -70 27 -11 226 -12 266 -2 19 5 24 13 24 38 0 32 -36 118 -69 164
-10 15 -24 45 -30 67 -26 87 -44 116 -79 131 -46 19 -82 18 -112 -3z"/>
<path d="M1970 2240 c0 -5 4 -10 9 -10 6 0 13 5 16 10 3 6 -1 10 -9 10 -9 0
-16 -4 -16 -10z"/>
<path d="M2882 2239 c-83 -14 -291 -135 -292 -168 0 -8 -8 -23 -17 -34 -15
-16 -18 -37 -16 -141 2 -113 4 -122 25 -140 18 -14 33 -17 73 -13 85 10 120
25 171 75 28 26 72 67 100 92 27 25 65 72 84 105 29 50 35 70 38 129 1 39 -1
77 -6 84 -11 17 -95 23 -160 11z"/>
<path d="M3070 2230 c8 -5 25 -10 37 -10 27 0 154 -45 208 -73 22 -12 59 -37
83 -55 24 -19 45 -32 48 -30 9 10 -93 80 -163 114 -73 34 -170 64 -208 64 -16
0 -17 -2 -5 -10z"/>
<path d="M3526 2220 c-48 -15 -66 -39 -66 -86 0 -47 9 -58 133 -168 100 -87
97 -89 97 79 0 140 -1 145 -23 160 -29 19 -103 27 -141 15z"/>
<path d="M1917 2203 c-4 -3 -7 -13 -7 -22 1 -13 3 -13 11 2 11 19 8 33 -4 20z"/>
<path d="M3222 2128 c2 -13 8 -23 13 -23 6 0 11 10 13 23 2 15 -2 22 -13 22
-11 0 -15 -7 -13 -22z"/>
<path d="M3182 2103 c2 -10 11 -19 21 -21 24 -5 21 15 -4 28 -18 10 -20 9 -17
-7z"/>
<path d="M3257 2093 c-14 -13 -6 -24 15 -21 27 4 36 28 11 28 -11 0 -23 -3
-26 -7z"/>
<path d="M1627 2083 c-38 -6 -42 -23 -17 -72 23 -46 40 -46 40 -1 0 16 4 31 9
34 14 9 21 46 8 45 -7 -1 -25 -4 -40 -6z"/>
<path d="M3183 2044 c-7 -18 11 -39 26 -30 17 11 13 46 -4 46 -9 0 -18 -7 -22
-16z"/>
<path d="M3260 2035 c7 -8 16 -15 21 -15 5 0 9 7 9 15 0 9 -9 15 -21 15 -18 0
-19 -2 -9 -15z"/>
<path d="M1669 1984 c-23 -25 -23 -26 -2 -15 23 12 38 29 31 37 -3 2 -15 -8
-29 -22z"/>
<path d="M3439 1962 c-63 -4 -85 -29 -98 -112 -11 -70 -2 -131 26 -162 48 -54
167 -61 266 -15 l57 26 0 73 0 73 -70 54 c-75 56 -107 68 -181 63z"/>
<path d="M942 1791 c-96 -24 -106 -29 -144 -71 -76 -84 -94 -129 -77 -194 14
-53 32 -66 91 -66 131 0 299 164 310 303 l5 57 -41 -1 c-23 -1 -87 -13 -144
-28z"/>
<path d="M1885 1784 c-18 -21 -43 -38 -62 -42 l-32 -7 36 -38 c35 -39 36 -37
15 23 -4 11 0 11 15 -3 12 -10 24 -33 27 -51 4 -22 15 -37 32 -44 32 -15 34
-15 34 3 0 8 9 15 19 15 10 0 21 7 25 15 6 18 46 20 46 3 0 -7 -12 -22 -27
-35 -22 -18 -24 -22 -10 -23 9 0 17 4 17 9 0 5 9 13 20 16 34 11 23 37 -45
109 -36 38 -65 73 -65 78 0 16 -16 7 -45 -28z"/>
<path d="M1256 1415 c-10 -47 -16 -88 -13 -92 7 -7 9 -2 31 79 17 61 20 98 8
98 -4 0 -16 -38 -26 -85z"/>
<path d="M1051 1373 c-7 -38 -15 -106 -18 -153 -6 -85 -6 -85 37 -170 23 -47
67 -111 96 -144 30 -33 54 -63 54 -68 0 -4 -30 3 -66 17 -92 35 -166 33 -274
-5 -47 -16 -93 -30 -103 -30 -45 0 -107 -63 -122 -123 -10 -39 47 -77 132 -88
122 -15 176 -12 215 15 20 13 57 36 83 52 l48 28 -16 -25 c-27 -43 -57 -159
-57 -225 0 -227 95 -304 182 -148 25 44 27 56 22 119 -3 39 -15 121 -25 184
-19 115 -19 148 1 95 25 -66 44 -93 110 -162 82 -85 131 -111 213 -112 62 0
87 14 87 47 0 10 -62 83 -137 161 -105 109 -144 142 -163 142 -30 0 -110 30
-110 41 0 5 6 9 13 9 8 0 18 33 29 93 17 100 13 172 -15 242 -8 22 -17 58 -20
80 -9 76 -107 195 -161 195 -20 0 -24 -8 -35 -67z"/>
<path d="M1320 1354 c0 -19 21 -29 55 -25 64 6 50 35 -17 37 -24 0 -38 -4 -38
-12z"/>
<path d="M1370 1310 c0 -14 48 -35 58 -26 8 9 -26 36 -45 36 -7 0 -13 -5 -13
-10z"/>
<path d="M1300 1295 c7 -9 20 -13 29 -10 10 3 20 -3 26 -17 11 -24 35 -36 35
-18 0 20 -52 60 -78 60 -21 0 -23 -2 -12 -15z"/>
<path d="M1475 956 c-56 -14 -115 -42 -115 -55 0 -5 -16 -18 -35 -30 -21 -12
-35 -28 -35 -40 0 -17 10 -20 76 -26 78 -8 296 9 339 25 13 5 30 19 39 31 14
21 14 24 -2 42 -27 30 -62 44 -127 52 -33 4 -67 8 -75 10 -8 2 -37 -2 -65 -9z"/>
<path d="M1056 228 c-9 -12 -16 -30 -16 -40 0 -9 -5 -20 -10 -23 -6 -4 -20
-25 -31 -48 -11 -23 -35 -54 -52 -69 -20 -17 -26 -27 -17 -27 24 0 57 32 91
90 49 84 78 178 35 117z"/>
</g>
</svg>
